<svg width="168" height="189" viewBox="0 0 168 189" fill="none" xmlns="http://www.w3.org/2000/svg">
<path d="M20.5 3L20.9411 4.43367L20.5 3ZM41 188.5L43.1291 171.311L27.1783 178.062L41 188.5ZM37.635 176.471C36.6355 173.989 35.624 171.431 34.606 168.806L31.8091 169.891C32.8317 172.527 33.8479 175.097 34.8521 177.592L37.635 176.471ZM31.6656 161.086C30.7153 158.544 29.7641 155.954 28.8165 153.323L25.994 154.34C26.9457 156.982 27.9011 159.584 28.8556 162.136L31.6656 161.086ZM26.0614 145.525C25.1669 142.943 24.2797 140.331 23.4037 137.696L20.5568 138.642C21.4369 141.29 22.3282 143.914 23.2267 146.507L26.0614 145.525ZM20.8479 129.836C20.0164 127.22 19.1995 124.588 18.4006 121.947L15.5291 122.816C16.3322 125.471 17.1533 128.116 17.9888 130.744L20.8479 129.836ZM16.0677 114.024C15.3087 111.371 14.5715 108.716 13.8596 106.065L10.9622 106.843C11.6785 109.511 12.4201 112.182 13.1834 114.849L16.0677 114.024ZM11.7897 98.0705C11.1198 95.3811 10.4801 92.7024 9.87456 90.0409L6.94933 90.7065C7.55967 93.3889 8.20407 96.0875 8.8786 98.7956L11.7897 98.0705ZM8.13574 81.9772C7.58145 79.2497 7.06841 76.5489 6.60091 73.8823L3.64598 74.4003C4.11843 77.0952 4.63653 79.8225 5.19584 82.5747L8.13574 81.9772ZM5.30643 65.7626C4.91047 62.9865 4.57211 60.2597 4.29656 57.5913L1.31243 57.8994C1.59229 60.6095 1.93551 63.375 2.33649 66.1862L5.30643 65.7626ZM3.6425 49.3932C3.48941 46.5803 3.42046 43.8534 3.4424 41.2248L0.442503 41.1998C0.419987 43.8976 0.490811 46.6876 0.646935 49.5563L3.6425 49.3932ZM3.84006 33.068C4.10615 30.2424 4.50759 27.5781 5.05359 25.0934L2.1235 24.4495C1.54753 27.0706 1.12911 29.8576 0.853274 32.7867L3.84006 33.068ZM7.44348 17.451C8.54225 14.8836 9.87572 12.6423 11.4559 10.7501L9.15327 8.82711C7.35789 10.977 5.88047 13.4783 4.68543 16.2707L7.44348 17.451ZM17.3757 5.90581C18.4827 5.31783 19.6695 4.82494 20.9411 4.43367L20.0589 1.56633C18.6107 2.01192 17.2477 2.57687 15.9685 3.25632L17.3757 5.90581ZM20.9411 4.43367C22.1287 4.06825 23.3461 3.81233 24.5925 3.6618L24.2329 0.683443C22.8145 0.854728 21.422 1.14692 20.0589 1.56633L20.9411 4.43367ZM32.1092 3.93636C34.4771 4.35722 36.9319 5.07807 39.4648 6.08196L40.5702 3.29302C37.8795 2.22661 35.2298 1.44397 32.6342 0.982651L32.1092 3.93636ZM46.505 9.478C48.6763 10.7 50.8867 12.0954 53.1304 13.6513L54.8399 11.186C52.529 9.58356 50.2391 8.13712 47.9764 6.86362L46.505 9.478ZM59.4637 18.3915C61.4669 19.9962 63.4888 21.7115 65.5254 23.5281L67.5224 21.2893C65.45 19.4408 63.3876 17.6909 61.3393 16.0501L59.4637 18.3915ZM71.3197 28.9265C73.1798 30.731 75.048 32.61 76.9214 34.5564L79.0829 32.476C77.1875 30.5067 75.2951 28.6033 73.4086 26.7732L71.3197 28.9265ZM82.353 40.3692C84.1125 42.3058 85.8736 44.2949 87.634 46.3308L89.9033 44.3686C88.1278 42.3153 86.3504 40.3077 84.5734 38.3518L82.353 40.3692ZM92.7811 52.4163C94.4604 54.4444 96.1367 56.5097 97.8079 58.607L100.154 56.7375C98.4719 54.6262 96.7837 52.5462 95.0917 50.5029L92.7811 52.4163ZM102.726 64.8886C104.34 66.9852 105.946 69.1072 107.544 71.2498L109.949 69.4562C108.343 67.302 106.727 65.1679 105.103 63.0588L102.726 64.8886ZM112.271 77.6813C113.829 79.8322 115.377 81.9985 116.912 84.1755L119.364 82.4466C117.822 80.2595 116.267 78.0828 114.701 75.9212L112.271 77.6813ZM121.473 90.7263C122.984 92.9226 124.479 95.1249 125.959 97.3286L128.449 95.6565C126.964 93.4438 125.462 91.2323 123.945 89.0266L121.473 90.7263ZM130.373 103.981C131.841 106.219 133.291 108.454 134.72 110.681L137.245 109.06C135.811 106.826 134.356 104.582 132.881 102.335L130.373 103.981ZM139 117.424C140.43 119.701 141.836 121.964 143.215 124.208L145.771 122.637C144.387 120.385 142.976 118.114 141.541 115.828L139 117.424ZM147.364 131.03C148.758 133.347 150.119 135.635 151.446 137.889L154.032 136.367C152.7 134.105 151.333 131.808 149.935 129.484L147.364 131.03ZM155.462 144.788C156.826 147.158 158.146 149.479 159.418 151.745L162.034 150.276C160.756 148.001 159.431 145.671 158.062 143.292L155.462 144.788ZM163.297 158.744C163.94 159.92 164.568 161.076 165.179 162.211L167.821 160.789C167.206 159.648 166.576 158.486 165.93 157.304L163.297 158.744Z" fill="#4975C6"/>
</svg>
