<svg width="162" height="190" viewBox="0 0 162 190" fill="none" xmlns="http://www.w3.org/2000/svg">
<path d="M138.791 186.909L138.432 185.453L138.791 186.909ZM128.782 0.548241L125.687 17.59L141.993 11.7493L128.782 0.548241ZM131.463 12.7477C132.321 15.2825 133.187 17.8937 134.055 20.5712L136.909 19.6456C136.037 16.9561 135.167 14.3328 134.305 11.786L131.463 12.7477ZM136.556 28.4452C137.362 31.0363 138.165 33.6759 138.963 36.356L141.838 35.5001C141.037 32.8083 140.23 30.1571 139.421 27.5546L136.556 28.4452ZM141.274 44.2967C142.022 46.925 142.76 49.583 143.486 52.2636L146.382 51.4794C145.652 48.7863 144.91 46.1161 144.16 43.476L141.274 44.2967ZM145.595 60.2553C146.277 62.9139 146.945 65.5873 147.593 68.269L150.509 67.5636C149.857 64.8678 149.186 62.1808 148.5 59.5092L145.595 60.2553ZM149.476 76.3116C150.084 79.0025 150.67 81.6949 151.232 84.3824L154.168 83.7691C153.604 81.0649 153.014 78.3564 152.402 75.6502L149.476 76.3116ZM152.848 92.4807C153.365 95.2036 153.852 97.9142 154.307 100.605L157.265 100.106C156.807 97.3934 156.316 94.6627 155.795 91.9209L152.848 92.4807ZM155.588 108.754C155.988 111.509 156.348 114.234 156.664 116.923L159.644 116.572C159.324 113.855 158.961 111.103 158.557 108.324L155.588 108.754ZM157.499 125.103C157.738 127.897 157.922 130.638 158.047 133.318L161.043 133.179C160.917 130.457 160.73 127.677 160.488 124.847L157.499 125.103ZM158.238 141.54C158.232 144.357 158.147 147.083 157.977 149.707L160.971 149.901C161.145 147.208 161.232 144.419 161.238 141.546L158.238 141.54ZM157.12 157.828C156.695 160.634 156.144 163.272 155.459 165.722L158.348 166.53C159.071 163.945 159.646 161.186 160.086 158.277L157.12 157.828ZM152.642 173.217C151.4 175.718 149.942 177.881 148.258 179.681L150.449 181.731C152.362 179.686 153.978 177.272 155.329 174.551L152.642 173.217ZM142.075 184.184C140.936 184.709 139.723 185.134 138.432 185.453L139.151 188.365C140.622 188.002 142.015 187.515 143.33 186.909L142.075 184.184ZM138.432 185.453C137.225 185.751 135.996 185.937 134.743 186.017L134.934 189.011C136.36 188.92 137.766 188.707 139.151 188.365L138.432 185.453ZM127.253 185.32C124.913 184.766 122.503 183.908 120.03 182.763L118.77 185.485C121.396 186.701 123.997 187.632 126.563 188.239L127.253 185.32ZM113.193 178.975C111.094 177.633 108.966 176.115 106.813 174.435L104.968 176.8C107.184 178.53 109.389 180.103 111.576 181.502L113.193 178.975ZM100.757 169.345C98.8478 167.63 96.9258 165.804 94.9948 163.875L92.8748 165.998C94.8397 167.96 96.8002 169.823 98.7527 171.577L100.757 169.345ZM89.5142 158.159C87.7587 156.252 85.9994 154.271 84.2388 152.222L81.9634 154.177C83.7448 156.25 85.5269 158.257 87.3072 160.191L89.5142 158.159ZM79.1435 146.112C77.496 144.079 75.8498 141.994 74.207 139.862L71.8307 141.693C73.4876 143.844 75.149 145.948 76.8129 148.001L79.1435 146.112ZM69.4112 133.496C67.8488 131.377 66.2916 129.22 64.7414 127.032L62.2934 128.766C63.854 130.969 65.4223 133.141 66.9963 135.276L69.4112 133.496ZM60.1853 120.483C58.6923 118.299 57.2077 116.09 55.7331 113.86L53.231 115.515C54.7136 117.757 56.2067 119.979 57.7086 122.176L60.1853 120.483ZM51.3765 107.173C49.9419 104.937 48.5188 102.687 47.1087 100.427L44.5635 102.015C45.98 104.286 47.41 106.546 48.8517 108.793L51.3765 107.173ZM42.9243 93.6295C41.5404 91.3516 40.1713 89.0685 38.8185 86.7849L36.2374 88.3139C37.5957 90.6068 38.9705 92.8995 40.3603 95.1872L42.9243 93.6295ZM34.7861 79.8942C33.4462 77.5767 32.1249 75.2637 30.8239 72.9601L28.2117 74.4354C29.5175 76.7475 30.8439 79.0693 32.189 81.3958L34.7861 79.8942ZM26.9305 65.9863C25.6311 63.632 24.3552 61.2932 23.1048 58.9754L20.4645 60.3999C21.7194 62.7259 22.9998 65.0731 24.304 67.436L26.9305 65.9863ZM19.3469 51.9298C18.0862 49.5388 16.8559 47.1774 15.6581 44.8521L12.9911 46.2258C14.1932 48.5596 15.428 50.9295 16.6932 53.3291L19.3469 51.9298ZM12.0375 37.7376C10.8095 35.2946 9.62282 32.9023 8.48032 30.569L5.78598 31.8883C6.93311 34.2311 8.12442 36.6327 9.35709 39.085L12.0375 37.7376ZM5.00161 23.3625C4.42594 22.152 3.86457 20.9621 3.31799 19.7941L0.600805 21.0657C1.15007 22.2394 1.71409 23.4349 2.29237 24.6509L5.00161 23.3625Z" fill="#4975C6"/>
</svg>
